<svg xmlns="http://www.w3.org/2000/svg" viewBox="0 0 1024 1024" role="img" aria-label="kiri app icon">
  <rect x="64" y="64" width="896" height="896" rx="208" fill="#f8fafc" />
  <g transform="translate(82 82) scale(.84)">
    <path
      fill="#0b1117"
      d="M831 125c38 0 68 30 68 68v226c0 259-210 469-469 469H207c-40 0-76 20-98 53l-22 34c-18 28-61 9-52-23l18-64c8-29 12-58 12-88V461c0-186 151-336 336-336h430Z"
    />
    <path
      fill="none"
      stroke="#f7fafc"
      stroke-linecap="round"
      stroke-linejoin="round"
      stroke-width="54"
      d="m349 400 96 96-96 96"
    />
    <path
      fill="none"
      stroke="#f7fafc"
      stroke-linecap="round"
      stroke-width="54"
      d="M546 588h129"
    />
  </g>
</svg>
